<?xml version="1.0" encoding="UTF-8" standalone="no"?>
<!DOCTYPE svg PUBLIC "-//W3C//DTD SVG 1.0//EN"
 "http://www.w3.org/TR/2001/REC-SVG-20010904/DTD/svg10.dtd" [
 <!ATTLIST svg xmlns:xlink CDATA #FIXED "http://www.w3.org/1999/xlink">
]>
<!-- Generated by dot version 2.7.20060111.0540 (Fri Sep  3 08:16:42 UTC 2010)
     For user: (fek2775) fek2775 -->
<!-- Title: _anonymous_0 Pages: 1 -->
<svg width="462px" height="537px"
 viewBox = "0 0 347 403"
 xmlns="http://www.w3.org/2000/svg" xmlns:xlink="http://www.w3.org/1999/xlink">
<g id="graph0" class="graph" style="font-family:Times-Roman;font-size:14.00;">
<title>_anonymous_0</title>
<polygon style="fill:white;stroke:white;" points="0,403 0,-11 358,-11 358,403 0,403"/>
<!-- Serveur -->
<g id="node1" class="node"><title>Serveur</title>
<polygon style="fill:none;stroke:black;" points="86,104 6,104 6,152 86,152 86,104"/>
<text text-anchor="middle" x="46" y="135">Serveur</text>
</g>
<!-- Tests_start -->
<g id="node6" class="node"><title>Tests_start</title>
<ellipse style="fill:none;stroke:black;" cx="90" cy="251" rx="42" ry="18"/>
<text text-anchor="middle" x="90" y="258">Tests_start</text>
</g>
<!-- Serveur&#45;&gt;Tests_start -->
<g id="edge6" class="edge"><title>Serveur&#45;&gt;Tests_start</title>
<path style="fill:none;stroke:black;" d="M55,152C60,171 70,196 78,216"/>
<ellipse style="fill:black;stroke:black;" cx="80" cy="222" rx="4" ry="4"/>
<text text-anchor="middle" x="72" y="194">2</text>
</g>
<!-- Doc_Papier -->
<g id="node2" class="node"><title>Doc_Papier</title>
<polygon style="fill:none;stroke:black;" points="256,222 172,251 256,280 340,251 256,222"/>
<text text-anchor="middle" x="256" y="258">Doc_Papier</text>
</g>
<!-- Deploiement_finish -->
<g id="node9" class="node"><title>Deploiement_finish</title>
<ellipse style="fill:none;stroke:black;" cx="203" cy="374" rx="68" ry="18"/>
<text text-anchor="middle" x="203" y="380">Deploiement_finish</text>
</g>
<!-- Doc_Papier&#45;&gt;Deploiement_finish -->
<g id="edge10" class="edge"><title>Doc_Papier&#45;&gt;Deploiement_finish</title>
<path style="fill:none;stroke:black;" d="M246,278C238,296 227,320 218,340"/>
<ellipse style="fill:black;stroke:black;" cx="216" cy="344" rx="4" ry="4"/>
<text text-anchor="middle" x="235" y="322">1</text>
</g>
<!-- Conception_start -->
<g id="node3" class="node"><title>Conception_start</title>
<ellipse style="fill:none;stroke:black;" cx="195" cy="30" rx="60" ry="18"/>
<text text-anchor="middle" x="195" y="36">Conception_start</text>
</g>
<!-- Conception_finish -->
<g id="node4" class="node"><title>Conception_finish</title>
<ellipse style="fill:none;stroke:black;" cx="195" cy="128" rx="64" ry="18"/>
<text text-anchor="middle" x="195" y="135">Conception_finish</text>
</g>
<!-- Conception_start&#45;&gt;Conception_finish -->
<g id="edge2" class="edge"><title>Conception_start&#45;&gt;Conception_finish</title>
<path style="fill:none;stroke:black;" d="M195,54C195,66 195,78 195,91"/>
<polygon style="fill:black;stroke:black;" points="195,104 202,91 195,100 195,91 195,100 190,91 195,104 195,104"/>
</g>
<!-- Conception_finish&#45;&gt;Tests_start -->
<g id="edge4" class="edge"><title>Conception_finish&#45;&gt;Tests_start</title>
<path style="fill:none;stroke:black;" d="M175,152C159,171 136,196 119,218"/>
<polygon style="fill:black;stroke:black;" points="110,228 123,222 112,226 119,218 112,226 114,215 110,228 110,228"/>
</g>
<!-- Tests_start&#45;&gt;Deploiement_finish -->
<g id="edge8" class="edge"><title>Tests_start&#45;&gt;Deploiement_finish</title>
<path style="fill:none;stroke:black;" d="M111,274C128,292 152,319 172,339"/>
<polygon style="fill:black;stroke:black;" points="182,350 178,336 179,347 172,339 179,347 168,343 182,350 182,350"/>
</g>
</g>
</svg>
